<svg width="157" height="82" viewBox="0 0 157 82" fill="none" xmlns="http://www.w3.org/2000/svg">
<path d="M46.4238 8.55805L45.5008 8.57124L47.7689 0H51.0128L48.1117 9.88989H44.169L41.4525 1.64832H42.6789L39.9625 9.88989H36.0197L33.1187 0H36.3757L38.6438 8.55805L37.7339 8.54486L40.4504 0H43.6811L46.4238 8.55805Z" fill="#8C6737"/>
<path d="M62.1554 4.27243H65.6102C65.997 4.27243 66.2959 4.18452 66.5069 4.0087C66.7267 3.83288 66.8366 3.57794 66.8366 3.24388C66.8366 2.90982 66.7267 2.65489 66.5069 2.47907C66.2959 2.30325 65.997 2.21534 65.6102 2.21534H61.7202L63.1048 0.791191V9.88989H60.0323V0H66.0718C66.8366 0 67.5091 0.136261 68.0893 0.408782C68.6695 0.681304 69.1222 1.05932 69.4475 1.54282C69.7728 2.02633 69.9354 2.59335 69.9354 3.24388C69.9354 3.87684 69.7728 4.43946 69.4475 4.93176C69.1222 5.41526 68.6695 5.79328 68.0893 6.0658C67.5091 6.32953 66.8366 6.46139 66.0718 6.46139H62.1554V4.27243ZM63.474 5.26142H66.8893L70.2914 9.88989H66.7706L63.474 5.26142Z" fill="#8C6737"/>
<path d="M79.4598 0H82.5322V9.88989H79.4598V0Z" fill="#8C6737"/>
<path d="M95.3535 1.33184H98.426V9.88989H95.3535V1.33184ZM91.6877 0H102.092V2.72961H91.6877V0Z" fill="#8C6737"/>
<path d="M119.895 3.86365V6.02624H112.55V3.86365H119.895ZM114.647 4.94494L114.027 8.76903L112.827 7.4372H120.357V9.88989H110.981L111.719 4.94494L110.981 0H120.291V2.45269H112.827L114.027 1.12085L114.647 4.94494Z" fill="#8C6737"/>
<g clip-path="url(#clip0_17_931)">
<path d="M64.6299 39.8999L67.7899 41.7899V56.8799L64.6299 54.9599V39.8999ZM78.6399 57.0299L77.7299 57.2199V47.7999L80.7899 49.6299V64.6899L77.3499 62.5899L72.1899 50.0699L73.0799 49.8799V60.0699L70.0299 58.2399V43.0399L73.5399 45.1799L78.6399 57.0399V57.0299Z" fill="#8C6737"/>
<path d="M-3.90634e-05 37.6299H6.52996C6.67996 38.5899 7.09996 39.4399 7.77996 40.1699C8.48996 40.8799 9.41996 41.4399 10.59 41.8399C11.78 42.2199 13.15 42.4099 14.69 42.4099C16.94 42.4099 18.71 42.0899 20 41.4599C21.32 40.7999 21.97 39.8899 21.97 38.7299C21.97 37.8199 21.59 37.1199 20.83 36.6399C20.1 36.1299 18.72 35.7699 16.69 35.5399L10.96 34.8899C7.26996 34.4899 4.57996 33.6199 2.90996 32.3099C1.26996 30.9699 0.439961 29.1099 0.439961 26.7299C0.439961 24.8599 0.979961 23.2599 2.06996 21.9499C3.17996 20.6299 4.73996 19.6299 6.73996 18.9499C8.73996 18.2399 11.09 17.8899 13.8 17.8899C16.51 17.8899 18.77 18.2799 20.82 19.0699C22.87 19.8299 24.5 20.8999 25.72 22.2999C26.93 23.6699 27.59 25.2699 27.69 27.1199H21.16C21.03 26.2899 20.65 25.5599 20.02 24.9599C19.41 24.3299 18.57 23.8499 17.48 23.5199C16.39 23.1699 15.11 22.9899 13.65 22.9899C11.6 22.9899 9.96996 23.2899 8.74996 23.8999C7.53996 24.5099 6.92996 25.3699 6.92996 26.4799C6.92996 27.3399 7.27996 28.0099 7.98996 28.4899C8.71996 28.9499 9.99996 29.2899 11.82 29.5099L17.78 30.2299C20.41 30.5099 22.5 30.9599 24.04 31.5999C25.61 32.2099 26.72 33.0299 27.38 34.0699C28.06 35.1099 28.4 36.4199 28.4 38.0199C28.4 39.9199 27.82 41.5899 26.65 43.0299C25.51 44.4499 23.9 45.5499 21.83 46.3299C19.76 47.1099 17.33 47.5099 14.54 47.5099C11.75 47.5099 9.20996 47.1099 7.05996 46.2999C4.90996 45.4699 3.20996 44.3099 1.96996 42.8499C0.729961 41.3599 0.0599609 39.6199 -0.0400391 37.6499L-3.90634e-05 37.6299Z" fill="#8C6737"/>
<path d="M56.22 30.23V35.16H35.84V30.23H56.22ZM40.17 32.69L38.27 44.76L35.46 41.57H57.4V46.92H31.78L33.98 32.69L31.78 18.46H57.21V23.81H35.46L38.27 20.62L40.17 32.69Z" fill="#8C6737"/>
<path d="M119.71 30.23V35.16H99.33V30.23H119.71ZM103.66 32.69L101.76 44.76L98.95 41.57H120.89V46.92H95.27L97.47 32.69L95.27 18.46H120.7V23.81H98.95L101.76 20.62L103.66 32.69Z" fill="#8C6737"/>
<path d="M152.18 42.67L149.94 43.01V18.46H156.2V46.93H148.04L129.82 22.37L132.02 22.03V46.93H125.8V18.46H134.15L152.18 42.67Z" fill="#8C6737"/>
<path d="M61.98 24.6099L85.21 38.6999V18.3599H91.33V46.9199H85.54L61.99 32.7799V24.6099H61.98Z" fill="#8C6737"/>
<path d="M-3.90634e-05 71.8599H6.52996C6.67996 72.8199 7.09996 73.6699 7.77996 74.3999C8.48996 75.1099 9.41996 75.6699 10.59 76.0699C11.78 76.4499 13.15 76.6399 14.69 76.6399C16.94 76.6399 18.71 76.3199 20 75.6899C21.32 75.0299 21.97 74.1199 21.97 72.9599C21.97 72.0499 21.59 71.3499 20.83 70.8699C20.1 70.3599 18.72 69.9999 16.69 69.7699L10.96 69.1199C7.26996 68.7199 4.57996 67.8499 2.90996 66.5399C1.26996 65.1999 0.439961 63.3399 0.439961 60.9599C0.439961 59.0899 0.979961 57.4899 2.06996 56.1799C3.17996 54.8599 4.73996 53.8599 6.73996 53.1799C8.73996 52.4699 11.09 52.1199 13.8 52.1199C16.51 52.1199 18.77 52.5099 20.82 53.2999C22.87 54.0599 24.5 55.1299 25.72 56.5299C26.93 57.8999 27.59 59.4999 27.69 61.3499H21.16C21.03 60.5199 20.65 59.7899 20.02 59.1899C19.41 58.5599 18.57 58.0799 17.48 57.7499C16.39 57.3999 15.11 57.2199 13.65 57.2199C11.6 57.2199 9.96996 57.5199 8.74996 58.1299C7.53996 58.7399 6.92996 59.5999 6.92996 60.7099C6.92996 61.5699 7.27996 62.2399 7.98996 62.7199C8.71996 63.1799 9.99996 63.5199 11.82 63.7399L17.78 64.4599C20.41 64.7399 22.5 65.1899 24.04 65.8299C25.61 66.4399 26.72 67.2599 27.38 68.2999C28.06 69.3399 28.4 70.6499 28.4 72.2499C28.4 74.1499 27.82 75.8199 26.65 77.2599C25.51 78.6799 23.9 79.7799 21.83 80.5599C19.76 81.3399 17.33 81.7399 14.54 81.7399C11.75 81.7399 9.20996 81.3399 7.05996 80.5299C4.90996 79.6999 3.20996 78.5399 1.96996 77.0799C0.729961 75.5899 0.0599609 73.8499 -0.0400391 71.8799L-3.90634e-05 71.8599Z" fill="#8C6737"/>
<path d="M56.22 64.4599V69.3899H35.84V64.4599H56.22ZM40.17 66.93L38.27 79L35.46 75.8099H57.4V81.16H31.78L33.98 66.93L31.78 52.7H57.21V58.0499H35.46L38.27 54.86L40.17 66.93Z" fill="#8C6737"/>
<path d="M119.71 64.4599V69.3899H99.33V64.4599H119.71ZM103.66 66.93L101.76 79L98.95 75.8099H120.89V81.16H95.27L97.47 66.93L95.27 52.7H120.7V58.0499H98.95L101.76 54.86L103.66 66.93Z" fill="#8C6737"/>
<path d="M152.18 76.9099L149.94 77.2499V52.6899H156.2V81.1599H148.04L129.82 56.5999L132.02 56.2599V81.1599H125.8V52.6899H134.15L152.18 76.8999V76.9099Z" fill="#8C6737"/>
<path d="M61.98 58.8499L85.21 72.9399V52.5999H91.33V81.1599H85.54L61.99 67.0199V58.8399L61.98 58.8499Z" fill="#8C6737"/>
</g>
<defs>
<clipPath id="clip0_17_931">
<rect width="156.2" height="63.84" fill="white" transform="translate(0 17.8899)"/>
</clipPath>
</defs>
</svg>
